HIERARCHY
ROOT Hips
{
  OFFSET 0 0 0
  CHANNELS 6 Xposition Yposition Zposition Zrotation Yrotation Xrotation
  JOINT LeftThigh
  {
    OFFSET 8.409438 0 -5.917753
    CHANNELS 3 Zrotation Yrotation Xrotation
    JOINT LeftLeg
    {
      OFFSET 0 0 -42.358652
      CHANNELS 3 Zrotation Yrotation Xrotation
      JOINT LeftFoot
      {
        OFFSET 0 0 -39.357303
        CHANNELS 3 Zrotation Yrotation Xrotation
      }
    }
  }
  JOINT RightThigh
  {
    OFFSET -8.409438 0 -5.917753
    CHANNELS 3 Zrotation Yrotation Xrotation
    JOINT RightLeg
    {
      OFFSET 0 0 -42.358652
      CHANNELS 3 Zrotation Yrotation Xrotation
      JOINT RightFoot
      {
        OFFSET 0 0 -39.357303
        CHANNELS 3 Zrotation Yrotation Xrotation
      }
    }
  }
  JOINT SpineLow
  {
    OFFSET 0 0 4.719101
    CHANNELS 3 Zrotation Yrotation Xrotation
    JOINT SpineMid
    {
      OFFSET 0 0 12.899191
      CHANNELS 3 Zrotation Yrotation Xrotation
      JOINT Chest
      {
        OFFSET 0 0 12.899191
        CHANNELS 3 Zrotation Yrotation Xrotation
        JOINT LeftShoulder
        {
          OFFSET 7.550562 1.41573 9.438202
          CHANNELS 3 Zrotation Yrotation Xrotation
          JOINT LeftArm
          {
            OFFSET 9.155056 0 4.247191
            CHANNELS 3 Zrotation Yrotation Xrotation
            JOINT LeftForearm
            {
              OFFSET 0 0 25.771955
              CHANNELS 3 Zrotation Yrotation Xrotation
              JOINT LeftHand
              {
                OFFSET 0 0 25.197169
                CHANNELS 3 Zrotation Yrotation Xrotation
              }
            }
          }
        }
        JOINT RightShoulder
        {
          OFFSET -7.550562 1.41573 9.438202
          CHANNELS 3 Zrotation Yrotation Xrotation
          JOINT RightArm
          {
            OFFSET -9.155056 0 4.247191
            CHANNELS 3 Zrotation Yrotation Xrotation
            JOINT RightForearm
            {
              OFFSET 0 0 -25.771955
              CHANNELS 3 Zrotation Yrotation Xrotation
              JOINT RightHand
              {
                OFFSET 0 0 -25.197169
                CHANNELS 3 Zrotation Yrotation Xrotation
              }
            }
          }
        }
        JOINT Neck
        {
          OFFSET 0 0 15.101124
          CHANNELS 3 Zrotation Yrotation Xrotation
          JOINT Head
          {
            OFFSET 0 0 11.325843
            CHANNELS 3 Zrotation Yrotation Xrotation
            End Site
            {
              OFFSET 0 0 14.157303
            }
          }
        }
      }
    }
  }
}
MOTION
Frames: 10
Frame Time: 0.0
0.0  101.685394  0.0  -1.17297  -17.453771  -98.047359  18.148447  -27.771986  -31.088367  -8.294792  27.540591  48.617674  -1.506472  4.662638  1.340139  -11.699661  0.77657  1.781528  -11.844017  27.190913  27.969676  21.779917  12.497478  -3.412466  -3.914596  0.12429  1.522102  -10.687705  0.584408  4.128006  -10.687704  0.584408  4.128006  8.189267  27.950808  16.127001  -171.525858  75.310389  -128.432299  -48.660543  -24.676947  92.269513  67.165991  -1.99756  -21.531062  31.833589  -3.083877  34.092053  98.882768  30.131336  35.845191  -23.590561  14.670811  -105.329467  80.643174  12.999131  63.114605  10.458035  -1.858938  -4.371581  7.83002  -1.469614  -3.247704  
0.0  101.685394  0.0  -1.021596  -16.528786  -98.196451  17.316984  -27.70996  -30.865754  -8.544498  27.725181  48.060018  -1.287841  4.737225  1.48116  -13.258011  1.192712  2.282082  -11.537829  27.239627  27.401592  22.344582  12.248982  -3.430039  -3.991683  0.126289  1.448356  -10.899049  0.582511  3.925835  -10.89905  0.582511  3.925834  8.357018  28.075647  16.720937  -173.259037  74.937006  -130.049452  -48.377174  -24.023032  92.07259  66.896569  -1.445653  -21.197161  31.913824  -3.110997  34.539402  96.019933  31.490512  34.165301  -21.255314  14.762781  -105.43144  80.601363  12.429837  63.240319  10.378663  -1.767113  -3.698001  7.773027  -1.388674  -2.744198  
0.0  101.685394  0.0  -0.922245  -15.553254  -98.369007  16.333801  -27.778751  -30.530448  -8.068151  27.427612  47.852232  -1.569686  4.741004  1.597561  -14.698062  1.44267  2.82014  -11.163536  27.296907  26.632385  22.750688  11.943501  -3.337759  -4.085331  0.124488  1.351805  -11.156114  0.566881  3.662007  -11.156113  0.566881  3.662007  8.690803  28.216067  17.345233  -175.077959  74.70504  -131.828235  -48.011688  -23.478149  91.899332  66.647297  -1.096875  -20.936943  32.078114  -3.279301  35.10734  95.606777  31.617699  33.983854  -21.53004  14.944742  -105.7847  80.529941  11.526682  63.466176  10.303456  -1.705782  -3.016052  7.718828  -1.330675  -2.233857  
0.0  101.685394  0.0  -0.860525  -14.735047  -98.624167  15.507256  -27.930992  -30.067459  -7.174464  26.845711  47.824826  -2.226165  4.661061  1.740375  -15.247445  1.412518  3.45841  -11.148506  27.379363  25.867603  22.899122  11.718419  -3.197432  -4.19862  0.123255  1.24536  -11.466893  0.55134  3.371001  -11.466893  0.55134  3.371001  9.184681  28.308957  18.01924  -178.147117  74.885904  -134.402082  -48.113311  -23.662127  91.423623  66.602691  -0.844032  -20.66008  32.359623  -3.799092  35.755253  95.463233  31.800147  34.281338  -22.059812  15.440683  -106.287555  80.336239  10.186382  63.730508  10.362243  -1.660638  -2.370218  7.764838  -1.28613  -1.749968  
0.0  101.685394  0.0  -0.8385  -13.919501  -98.742072  14.879385  -27.97458  -29.780603  -6.464858  26.256127  47.751459  -2.853026  4.586994  1.868115  -14.812036  1.066258  4.01336  -11.735248  27.46232  25.230221  22.514981  11.62827  -3.125183  -4.27082  0.129202  1.147574  -11.664946  0.553982  3.102843  -11.664945  0.553982  3.102842  9.552318  28.372365  18.57604  179.684603  74.667716  -136.568859  -47.930177  -23.894261  91.726813  66.739443  -0.606781  -20.381463  32.360475  -4.08617  36.303002  95.544754  32.282217  34.451822  -22.947928  15.988011  -106.909878  80.13316  8.49025  63.850654  10.255572  -1.686263  -1.958572  7.685814  -1.298015  -1.440996  
0.0  101.685394  0.0  -0.808688  -13.179608  -98.732069  14.595322  -27.859792  -29.692353  -6.715959  26.036281  46.999217  -2.611291  4.706459  2.38863  -13.578727  0.464075  4.376123  -12.855565  27.606668  24.774465  21.824734  11.736899  -3.098958  -4.383513  0.13243  1.05201  -11.97377  0.550752  2.840829  -11.97377  0.550752  2.840829  10.164109  28.455176  19.035916  177.288727  74.464667  -138.888426  -48.01983  -24.497685  92.249835  66.952824  -0.350998  -20.093691  32.549186  -4.327844  36.721562  95.902715  32.925878  34.831301  -24.017967  16.495024  -107.612642  79.971703  6.547797  63.843102  10.327791  -1.6969  -1.742444  7.740515  -1.302576  -1.278483  
0.0  101.685394  0.0  -0.747459  -12.488088  -98.620617  14.59787  -27.541598  -29.773787  -6.9777  25.711242  46.61154  -2.677275  4.6689  2.602926  -12.024337  -0.268829  4.477219  -13.97255  27.811963  24.570778  20.635406  11.957232  -3.129269  -4.452259  0.14302  1.001396  -12.161753  0.573222  2.700358  -12.161752  0.573222  2.700358  10.426737  28.470873  19.14286  175.407153  74.298998  -140.690591  -48.205003  -25.1051  92.961698  67.237914  0.009791  -19.84127  32.472185  -4.467218  36.727419  96.431849  33.741416  35.304954  -25.119954  16.854475  -108.517787  79.86585  4.3337  63.725917  10.259923  -1.720926  -1.858779  7.689215  -1.322358  -1.365534  
0.0  101.685394  0.0  -0.594688  -11.796428  -98.468733  14.608199  -26.994333  -29.980787  -7.677665  25.509411  46.094757  -2.56926  4.646469  2.812222  -10.590522  -0.954537  4.346615  -14.989628  28.067094  24.488802  19.298717  12.23812  -3.153997  -4.53726  0.164071  0.956373  -12.393756  0.625541  2.572951  -12.393756  0.625541  2.57295  10.49199  28.356073  19.104649  174.357674  73.980326  -141.830948  -48.496729  -25.684049  93.812554  67.452345  0.510754  -19.68966  32.261898  -4.592463  36.51156  97.23369  34.617738  35.990134  -26.158267  16.938292  -109.478238  79.896579  2.056092  63.395363  10.238837  -1.720269  -2.137714  7.672646  -1.326478  -1.574857  
0.0  101.685394  0.0  -0.390077  -11.082664  -98.278953  14.596137  -26.323687  -30.213013  -8.47506  25.333372  45.677391  -2.321759  4.653268  2.982601  -9.521256  -1.445446  4.088127  -15.912038  28.328657  24.405543  18.452362  12.506395  -3.097199  -4.62264  0.189902  0.909469  -12.626738  0.690192  2.43939  -12.626737  0.690192  2.43939  10.834283  28.356711  19.062093  173.219283  73.863537  -142.917279  -48.795667  -26.21071  94.788625  67.562208  1.246895  -19.613966  32.20684  -4.677217  36.364543  97.826961  35.820462  36.533804  -27.137848  16.795008  -110.421274  80.057296  -0.371195  62.786808  10.210549  -1.687817  -2.500105  7.650607  -1.308094  -1.847345  
0.0  101.685394  0.0  -0.107818  -10.440419  -98.147125  14.337459  -25.585953  -30.466014  -9.293447  25.281807  45.261273  -2.146931  4.632344  3.059934  -8.724958  -1.601624  3.875293  -16.696833  28.530544  24.300886  17.957684  12.633545  -3.010703  -4.740258  0.217727  0.856251  -12.947956  0.759788  2.287684  -12.947956  0.759788  2.287684  11.254166  28.295901  19.049039  173.178095  73.570744  -143.203623  -49.064402  -26.621233  95.946757  67.637565  2.294428  -19.563982  31.31111  -4.85442  35.760334  99.650702  36.495174  37.862544  -28.104591  16.466691  -111.465008  80.315901  -3.30741  61.781568  10.239931  -1.594943  -2.902146  7.672085  -1.245284  -2.150452  
